<svg width="425" height="475" viewBox="0 0 425 475" fill="none" xmlns="http://www.w3.org/2000/svg">
<path d="M195.31 24.2382C195.184 23.3587 195.097 22.6278 195.068 22.0312C195.04 21.4501 195.06 20.9016 195.21 20.4335C195.378 19.9066 195.71 19.4862 196.226 19.2435C196.671 19.0343 197.169 19 197.6 19C198.556 19 199.82 19.4278 201.115 20.0076C202.454 20.6075 203.976 21.4403 205.502 22.3879C208.539 24.273 211.704 26.6812 213.544 28.7321L213.544 28.732L213.553 28.7415C215.063 30.468 216.663 33.4914 217.877 36.4871C219.084 39.4676 220 42.6447 220 44.7C220 45.224 220.234 46.6422 220.646 48.6074C221.047 50.5222 221.591 52.8397 222.157 55.0799C222.724 57.3215 223.31 59.4727 223.795 61.057C223.924 61.4775 224.044 61.8526 224.153 62.1755C224.192 62.1198 224.231 62.0621 224.272 62.0024C224.852 61.1441 225.586 59.9454 226.325 58.6159C227.741 56.0476 230.142 53.2159 232.334 51.1905C233.429 50.1788 234.516 49.3264 235.443 48.8061C235.9 48.5498 236.382 48.3372 236.845 48.2572C237.298 48.1789 237.943 48.2009 238.422 48.7082C238.62 48.9123 238.735 49.1563 238.805 49.3367C238.883 49.539 238.944 49.7645 238.993 49.9948C239.091 50.4562 239.16 51.0269 239.208 51.6591C239.304 52.9291 239.319 54.5491 239.262 56.2583C239.149 59.6451 238.748 63.541 238.063 65.8693C236.593 71.4138 231.748 78.0958 226.573 81.6195L195.31 24.2382ZM195.31 24.2382C195.309 24.2371 195.309 24.2361 195.309 24.2351L196.3 24.1L195.31 24.2414C195.31 24.2403 195.31 24.2392 195.31 24.2382ZM215.265 98.0934C215.264 98.1028 215.263 98.1122 215.262 98.1215C215.259 98.1232 215.257 98.1247 215.255 98.126C215.227 98.1444 215.21 98.1591 215.205 98.1645C215.206 98.1631 215.208 98.1612 215.21 98.1585C215.224 98.1443 215.242 98.123 215.265 98.0934ZM219.4 91.2L220.344 91.5294C220.344 91.5308 220.343 91.5323 220.343 91.5338C220.342 91.5352 220.342 91.5367 220.341 91.5382L219.4 91.2ZM213.662 50.4429L214.2 49.6L213.663 50.4433C213.662 50.4432 213.662 50.443 213.662 50.4429ZM211.603 31.9039L211.603 31.9039L211.595 31.8932C210.297 30.1312 207.113 27.4129 204.669 25.8471C203.389 25.0599 202.09 24.3252 201.045 23.7902C200.519 23.5215 200.071 23.3098 199.727 23.168C199.555 23.0967 199.423 23.0487 199.329 23.0201C199.296 23.0103 199.273 23.0043 199.259 23.0009C199.164 23.0055 199.153 23.0272 199.141 23.0508C199.139 23.0541 199.137 23.0574 199.135 23.0608C199.069 23.171 198.981 23.454 199.001 24.0129C199.04 25.1106 199.472 26.7533 200.265 28.7126C201.837 32.6011 204.675 37.3691 207.834 40.8209C209.939 43.072 212.281 45.069 214.196 46.3579C215.161 47.0073 215.973 47.4467 216.566 47.6611C216.709 47.7125 216.825 47.7461 216.918 47.7672C216.919 47.7387 216.919 47.708 216.919 47.6749C216.92 47.294 216.863 46.7517 216.744 46.0676C216.509 44.709 216.056 42.9344 215.482 41.0693C214.909 39.2081 214.223 37.283 213.529 35.6268C212.826 33.9467 212.147 32.6217 211.603 31.9039ZM216.888 48.0484C216.886 48.0552 216.885 48.059 216.885 48.059C216.885 48.0591 216.886 48.0557 216.888 48.0484ZM224.982 71.9883L224.982 71.9884L224.98 72.0007C224.558 74.0592 224.327 75.6346 224.28 76.7677C224.257 77.3347 224.282 77.7541 224.336 78.05C224.367 78.2136 224.402 78.3139 224.427 78.3711C224.517 78.3526 224.679 78.3 224.927 78.1646C225.573 77.8115 226.483 77.0772 227.693 75.8926C232.627 70.8587 235.223 65.2786 235.803 58.2192C235.953 56.3773 235.996 55.0196 235.922 54.0841C235.885 53.6152 235.821 53.3035 235.752 53.1097C235.747 53.0956 235.742 53.0827 235.738 53.0708C235.618 53.1184 235.436 53.2143 235.184 53.393C234.541 53.8474 233.675 54.664 232.53 55.8831C228.587 60.1157 226.355 64.8299 224.982 71.9883Z" fill="white" stroke="white" stroke-width="2"/>
<mask id="path-2-outside-1_368_83" maskUnits="userSpaceOnUse" x="227.682" y="63.5" width="131" height="283" fill="black">
<rect fill="white" x="227.682" y="63.5" width="131" height="283"/>
<path d="M310.3 70.1C307.8 73.8 307.5 75.3 307.5 81.9C307.5 86.1 308.4 93.1 309.4 97.5C310.5 101.9 311.4 106.9 311.4 108.6C311.5 110.3 312.3 112.8 313.2 114.1C314.9 116.7 321.4 138.7 324.5 152C326.2 159.5 326.2 159.5 323.8 165.8C322.5 169.3 321 172 320.5 171.8C320 171.6 318.6 167.7 317.4 163C312.6 144.3 307.6 134.9 290.2 111.9C280.6 99.3 276.8 91.1 276.2 82C275.8 74.4 277.1 68.4 279 69.5C279.5 69.8 280 71.6 280 73.5C280 77.1 282.8 80 286.2 80C287.9 80 295.7 89.5 305.4 103.3C308.1 107 310.5 109.9 310.7 109.6C311.8 108.5 280 67 278.1 67C276.4 67 274.6 75 274.7 82.3L274.8 90.1L268.9 84.9C265.6 82.1 262.8 79.9 262.6 80.1C261.1 81.8 260 85.5 260 88.5C260 92.9 261.6 96.2 269 106.5C278.1 119.4 278.1 119.7 268.3 111C264.6 107.7 261.2 105 260.8 105C259.7 105 258.7 111.6 259.4 114.3C260.3 118 265.2 124.7 277 138.5C283.1 145.6 288.7 152.6 289.5 154C290.2 155.4 291.5 159.9 292.5 164C293.4 168.1 295.1 174.6 296.2 178.5C300.8 194.9 301 201.5 296.9 206.2L295 208.5L290.2 203C268.8 178.1 257.6 170.8 240.7 171.1C226.2 171.4 226.3 170.5 239.3 186.1C257.3 207.8 265.9 220.2 270.8 231.7C272.9 236.6 272.9 237 271.4 241.2C270.5 243.5 269.6 249.5 269.3 254.5C268.9 261.8 269.1 264.8 270.8 270.2C273.4 278.6 277.9 287.4 284.1 296.6C292.1 308.3 292.4 309.4 293.1 328.5L293.7 345.5L293.6 328C293.5 308.1 293.6 308.6 282.7 292.4C279.7 287.9 275.7 280.5 273.9 275.9C270.9 268.1 270.6 266.7 270.8 257C271 246.1 271.8 241.1 273.5 241C274.7 240.9 275.8 244.7 277.6 255.5L278.9 263.5L278.5 256.3C278 248.5 274.2 235.4 270.3 227.5C266.2 219.4 258 207.3 249 196.1C241.9 187.3 240.9 185.6 242.3 184.8C245 183.3 244.3 180.3 240.3 175.9L236.5 171.7L244.1 172.2C258.6 173.1 268.4 179.6 285.6 199.5C297.1 212.8 303.7 219.7 304.3 218.9C304.5 218.7 305.7 215.2 306.9 211.1C308.1 207.1 312.4 196 316.4 186.6C328.2 158.8 327.6 161.2 325.6 151.8C324.6 147.4 321.4 135.2 318.3 124.6C315.3 114.1 311.9 101.9 310.7 97.5C308.1 87.2 307.9 76.6 310.3 72.2C312.8 67.7 314.2 68.1 313.4 73.2C312.7 77.1 312.9 77.5 316.4 80.5C319.1 82.8 321.7 87.1 326.9 98C335.2 115.8 350.3 153.2 352.7 162C354.6 169.2 355 184 353.9 214C353.5 225.1 353.5 227.6 354 221C354.4 215.2 355.1 201.7 355.5 191C356.2 172.2 356.1 171.1 353.7 162C350.9 151.2 336.3 115 327 95.5C323.6 88.3 319.2 78.9 317.3 74.5C315.4 70.1 313.7 66.4 313.5 66.2C313.3 66 311.9 67.7 310.3 70.1ZM284.5 75.6C285.4 77 285.9 78.4 285.6 78.7C284.8 79.6 281 76 281 74.3C281 72.2 282.6 72.8 284.5 75.6ZM316.5 76.1C318.4 79.6 317.5 81.5 315.4 78.6C314.1 76.7 313.4 73 314.5 73C314.7 73 315.7 74.4 316.5 76.1ZM264 84.4C264 86.1 266.7 89 268.2 89C268.8 89 268.2 88.1 266.9 87.1C265.6 86 264.9 84.8 265.3 84.3C265.8 83.9 267.2 84.7 268.5 86.2C269.8 87.8 271.3 89 271.8 89C273.2 89 277.7 94.3 279.9 98.7C281.1 101.1 286 108.3 290.8 114.7C302.8 130.8 303.2 131.4 307.8 140.5C312.5 150 316.5 161.7 318.1 170.6L319.2 177L314.1 188.9C311.3 195.5 309 201.1 309 201.3C309 201.6 308.1 203.9 307 206.5C305.4 210.3 304.7 211 303.6 210.1C302.2 208.9 299 209.6 299 211.1C299 212.6 297 212.1 296.3 210.4C296 209.6 296.7 207.9 298 206.5C299.8 204.5 300.4 202.5 300.9 195.8L301.5 187.5L306.8 185.4C310 184.1 311.6 183.1 310.7 182.7C309.8 182.4 308.7 178.5 307.6 171.3C304.6 153.2 303.9 151.7 286.9 129C265.5 100.4 261.9 95 261.3 90.2C261 87.9 261 85.4 261.3 84.5C262.1 82.6 264 82.5 264 84.4ZM263.8 109.6C266.6 109.8 267 110.1 267 111.5C267 112.3 267.6 113 268.3 113C272.1 113 300.4 146.7 302.9 154.2C303.9 157.2 307.9 179.7 308 182.6C308 184 300.9 187.3 300 186.3C298.7 184.9 297 178.8 294.9 168.5C293.7 163 291.9 156.7 290.7 154.5C289.6 152.3 284.5 145.6 279.3 139.5C265.9 124 261.2 117.4 260.4 113.5C259.7 109.5 260.8 105.4 261.9 108C262.2 108.8 263.1 109.5 263.8 109.6ZM237.8 174.6C240.8 176.7 243.5 181.9 242.2 183.2C241.5 183.9 239.5 182.7 236.1 179.5C233.3 176.9 231 174.3 231 173.9C231 172.4 235.4 172.9 237.8 174.6ZM303.6 211.4C303.9 212.2 304 213.9 303.8 215.2L303.5 217.5L301.7 214.8C299.9 212.2 300.1 210 302.1 210C302.6 210 303.3 210.6 303.6 211.4Z"/>
</mask>
<path d="M310.3 70.1C307.8 73.8 307.5 75.3 307.5 81.9C307.5 86.1 308.4 93.1 309.4 97.5C310.5 101.9 311.4 106.9 311.4 108.6C311.5 110.3 312.3 112.8 313.2 114.1C314.9 116.7 321.4 138.7 324.5 152C326.2 159.5 326.2 159.5 323.8 165.8C322.5 169.3 321 172 320.5 171.8C320 171.6 318.6 167.7 317.4 163C312.6 144.3 307.6 134.9 290.2 111.9C280.6 99.3 276.8 91.1 276.2 82C275.8 74.4 277.1 68.4 279 69.5C279.5 69.8 280 71.6 280 73.5C280 77.1 282.8 80 286.2 80C287.9 80 295.7 89.5 305.4 103.3C308.1 107 310.5 109.9 310.7 109.6C311.8 108.5 280 67 278.1 67C276.4 67 274.6 75 274.7 82.3L274.8 90.1L268.9 84.9C265.6 82.1 262.8 79.9 262.6 80.1C261.1 81.8 260 85.5 260 88.5C260 92.9 261.6 96.2 269 106.5C278.1 119.4 278.1 119.7 268.3 111C264.6 107.7 261.2 105 260.8 105C259.7 105 258.7 111.6 259.4 114.3C260.3 118 265.2 124.7 277 138.5C283.1 145.6 288.7 152.6 289.5 154C290.2 155.4 291.5 159.9 292.5 164C293.4 168.1 295.1 174.6 296.2 178.5C300.8 194.9 301 201.5 296.9 206.2L295 208.5L290.2 203C268.8 178.1 257.6 170.8 240.7 171.1C226.2 171.4 226.3 170.5 239.3 186.1C257.3 207.8 265.9 220.2 270.8 231.7C272.9 236.6 272.9 237 271.4 241.2C270.5 243.5 269.6 249.5 269.3 254.5C268.9 261.8 269.1 264.8 270.8 270.2C273.4 278.6 277.9 287.4 284.1 296.6C292.1 308.3 292.4 309.4 293.1 328.5L293.7 345.5L293.6 328C293.5 308.1 293.6 308.6 282.7 292.4C279.7 287.9 275.7 280.5 273.9 275.9C270.9 268.1 270.6 266.7 270.8 257C271 246.1 271.8 241.1 273.5 241C274.7 240.9 275.8 244.7 277.6 255.5L278.9 263.5L278.5 256.3C278 248.5 274.2 235.4 270.3 227.5C266.2 219.4 258 207.3 249 196.1C241.9 187.3 240.9 185.6 242.3 184.8C245 183.3 244.3 180.3 240.3 175.9L236.5 171.7L244.1 172.2C258.6 173.1 268.4 179.6 285.6 199.5C297.1 212.8 303.7 219.7 304.3 218.9C304.5 218.7 305.7 215.2 306.9 211.1C308.1 207.1 312.4 196 316.4 186.6C328.2 158.8 327.6 161.2 325.6 151.8C324.6 147.4 321.4 135.2 318.3 124.6C315.3 114.1 311.9 101.9 310.7 97.5C308.1 87.2 307.9 76.6 310.3 72.2C312.8 67.7 314.2 68.1 313.4 73.2C312.7 77.1 312.9 77.5 316.4 80.5C319.1 82.8 321.7 87.1 326.9 98C335.2 115.8 350.3 153.2 352.7 162C354.6 169.2 355 184 353.9 214C353.5 225.1 353.5 227.6 354 221C354.4 215.2 355.1 201.7 355.5 191C356.2 172.2 356.1 171.1 353.7 162C350.9 151.2 336.3 115 327 95.5C323.6 88.3 319.2 78.9 317.3 74.5C315.4 70.1 313.7 66.4 313.5 66.2C313.3 66 311.9 67.7 310.3 70.1ZM284.5 75.6C285.4 77 285.9 78.4 285.6 78.7C284.8 79.6 281 76 281 74.3C281 72.2 282.6 72.8 284.5 75.6ZM316.5 76.1C318.4 79.6 317.5 81.5 315.4 78.6C314.1 76.7 313.4 73 314.5 73C314.7 73 315.7 74.4 316.5 76.1ZM264 84.4C264 86.1 266.7 89 268.2 89C268.8 89 268.2 88.1 266.9 87.1C265.6 86 264.9 84.8 265.3 84.3C265.8 83.9 267.2 84.7 268.5 86.2C269.8 87.8 271.3 89 271.8 89C273.2 89 277.7 94.3 279.9 98.7C281.1 101.1 286 108.3 290.8 114.7C302.8 130.8 303.2 131.4 307.8 140.5C312.5 150 316.5 161.7 318.1 170.6L319.2 177L314.1 188.9C311.3 195.5 309 201.1 309 201.3C309 201.6 308.1 203.9 307 206.5C305.4 210.3 304.7 211 303.6 210.1C302.2 208.9 299 209.6 299 211.1C299 212.6 297 212.1 296.3 210.4C296 209.6 296.7 207.9 298 206.5C299.8 204.5 300.4 202.5 300.9 195.8L301.5 187.5L306.8 185.4C310 184.1 311.6 183.1 310.7 182.7C309.8 182.4 308.7 178.5 307.6 171.3C304.6 153.2 303.9 151.7 286.9 129C265.5 100.4 261.9 95 261.3 90.2C261 87.9 261 85.4 261.3 84.5C262.1 82.6 264 82.5 264 84.4ZM263.8 109.6C266.6 109.8 267 110.1 267 111.5C267 112.3 267.6 113 268.3 113C272.1 113 300.4 146.7 302.9 154.2C303.9 157.2 307.9 179.7 308 182.6C308 184 300.9 187.3 300 186.3C298.7 184.9 297 178.8 294.9 168.5C293.7 163 291.9 156.7 290.7 154.5C289.6 152.3 284.5 145.6 279.3 139.5C265.9 124 261.2 117.4 260.4 113.5C259.7 109.5 260.8 105.4 261.9 108C262.2 108.8 263.1 109.5 263.8 109.6ZM237.8 174.6C240.8 176.7 243.5 181.9 242.2 183.2C241.5 183.9 239.5 182.7 236.1 179.5C233.3 176.9 231 174.3 231 173.9C231 172.4 235.4 172.9 237.8 174.6ZM303.6 211.4C303.9 212.2 304 213.9 303.8 215.2L303.5 217.5L301.7 214.8C299.9 212.2 300.1 210 302.1 210C302.6 210 303.3 210.6 303.6 211.4Z" fill="white"/>
<path d="M310.3 70.1C307.8 73.8 307.5 75.3 307.5 81.9C307.5 86.1 308.4 93.1 309.4 97.5C310.5 101.9 311.4 106.9 311.4 108.6C311.5 110.3 312.3 112.8 313.2 114.1C314.9 116.7 321.4 138.7 324.5 152C326.2 159.5 326.2 159.5 323.8 165.8C322.5 169.3 321 172 320.5 171.8C320 171.6 318.6 167.7 317.4 163C312.6 144.3 307.6 134.9 290.2 111.9C280.6 99.3 276.8 91.1 276.2 82C275.8 74.4 277.1 68.4 279 69.5C279.5 69.8 280 71.6 280 73.5C280 77.1 282.8 80 286.2 80C287.9 80 295.7 89.5 305.4 103.3C308.1 107 310.5 109.9 310.7 109.6C311.8 108.5 280 67 278.1 67C276.4 67 274.6 75 274.7 82.3L274.8 90.1L268.9 84.9C265.6 82.1 262.8 79.9 262.6 80.1C261.1 81.8 260 85.5 260 88.5C260 92.9 261.6 96.2 269 106.5C278.1 119.4 278.1 119.7 268.3 111C264.6 107.7 261.2 105 260.8 105C259.7 105 258.7 111.6 259.4 114.3C260.3 118 265.2 124.7 277 138.5C283.1 145.6 288.7 152.6 289.5 154C290.2 155.4 291.5 159.9 292.5 164C293.4 168.1 295.1 174.6 296.2 178.5C300.8 194.9 301 201.5 296.9 206.2L295 208.5L290.2 203C268.8 178.1 257.6 170.8 240.7 171.1C226.2 171.4 226.3 170.5 239.3 186.1C257.3 207.8 265.9 220.2 270.8 231.7C272.9 236.6 272.9 237 271.4 241.2C270.5 243.5 269.6 249.5 269.3 254.5C268.9 261.8 269.1 264.8 270.8 270.2C273.4 278.6 277.9 287.4 284.1 296.6C292.1 308.3 292.4 309.4 293.1 328.5L293.7 345.5L293.6 328C293.5 308.1 293.6 308.6 282.7 292.4C279.7 287.9 275.7 280.5 273.9 275.9C270.9 268.1 270.6 266.7 270.8 257C271 246.1 271.8 241.1 273.5 241C274.7 240.9 275.8 244.7 277.6 255.5L278.9 263.5L278.5 256.3C278 248.5 274.2 235.4 270.3 227.5C266.2 219.4 258 207.3 249 196.1C241.9 187.3 240.9 185.6 242.3 184.8C245 183.3 244.3 180.3 240.3 175.9L236.5 171.7L244.1 172.2C258.6 173.1 268.4 179.6 285.6 199.5C297.1 212.8 303.7 219.7 304.3 218.9C304.5 218.7 305.7 215.2 306.9 211.1C308.1 207.1 312.4 196 316.4 186.6C328.2 158.8 327.6 161.2 325.6 151.8C324.6 147.4 321.4 135.2 318.3 124.6C315.3 114.1 311.9 101.9 310.7 97.5C308.1 87.2 307.9 76.6 310.3 72.2C312.8 67.7 314.2 68.1 313.4 73.2C312.7 77.1 312.9 77.5 316.4 80.5C319.1 82.8 321.7 87.1 326.9 98C335.2 115.8 350.3 153.2 352.7 162C354.6 169.2 355 184 353.9 214C353.5 225.1 353.5 227.6 354 221C354.4 215.2 355.1 201.7 355.5 191C356.2 172.2 356.1 171.1 353.7 162C350.9 151.2 336.3 115 327 95.5C323.6 88.3 319.2 78.9 317.3 74.5C315.4 70.1 313.7 66.4 313.5 66.2C313.3 66 311.9 67.7 310.3 70.1ZM284.5 75.6C285.4 77 285.9 78.4 285.6 78.7C284.8 79.6 281 76 281 74.3C281 72.2 282.6 72.8 284.5 75.6ZM316.5 76.1C318.4 79.6 317.5 81.5 315.4 78.6C314.1 76.7 313.4 73 314.5 73C314.7 73 315.7 74.4 316.5 76.1ZM264 84.4C264 86.1 266.7 89 268.2 89C268.8 89 268.2 88.1 266.9 87.1C265.6 86 264.9 84.8 265.3 84.3C265.8 83.9 267.2 84.7 268.5 86.2C269.8 87.8 271.3 89 271.8 89C273.2 89 277.7 94.3 279.9 98.7C281.1 101.1 286 108.3 290.8 114.7C302.8 130.8 303.2 131.4 307.8 140.5C312.5 150 316.5 161.7 318.1 170.6L319.2 177L314.1 188.9C311.3 195.5 309 201.1 309 201.3C309 201.6 308.1 203.9 307 206.5C305.4 210.3 304.7 211 303.6 210.1C302.2 208.9 299 209.6 299 211.1C299 212.6 297 212.1 296.3 210.4C296 209.6 296.7 207.9 298 206.5C299.8 204.5 300.4 202.5 300.9 195.8L301.5 187.5L306.8 185.4C310 184.1 311.6 183.1 310.7 182.7C309.8 182.4 308.7 178.5 307.6 171.3C304.6 153.2 303.9 151.7 286.9 129C265.5 100.4 261.9 95 261.3 90.2C261 87.9 261 85.4 261.3 84.5C262.1 82.6 264 82.5 264 84.4ZM263.8 109.6C266.6 109.8 267 110.1 267 111.5C267 112.3 267.6 113 268.3 113C272.1 113 300.4 146.7 302.9 154.2C303.9 157.2 307.9 179.7 308 182.6C308 184 300.9 187.3 300 186.3C298.7 184.9 297 178.8 294.9 168.5C293.7 163 291.9 156.7 290.7 154.5C289.6 152.3 284.5 145.6 279.3 139.5C265.9 124 261.2 117.4 260.4 113.5C259.7 109.5 260.8 105.4 261.9 108C262.2 108.8 263.1 109.5 263.8 109.6ZM237.8 174.6C240.8 176.7 243.5 181.9 242.2 183.2C241.5 183.9 239.5 182.7 236.1 179.5C233.3 176.9 231 174.3 231 173.9C231 172.4 235.4 172.9 237.8 174.6ZM303.6 211.4C303.9 212.2 304 213.9 303.8 215.2L303.5 217.5L301.7 214.8C299.9 212.2 300.1 210 302.1 210C302.6 210 303.3 210.6 303.6 211.4Z" stroke="white" stroke-width="4" mask="url(#path-2-outside-1_368_83)"/>
<mask id="path-3-outside-2_368_83" maskUnits="userSpaceOnUse" x="72.075" y="64.3057" width="109" height="279" fill="black">
<rect fill="white" x="72.075" y="64.3057" width="109" height="279"/>
<path d="M113 72.7C111.7 75.9 107 86.4 102.5 96C91.2 120.2 77.4 155 75.5 163.8C73.6 172.9 73.6 186.4 75.5 218.5C77 243.2 77.7 248.4 81.8 263C86.7 280.6 87.4 287.1 87.5 314.7C87.5 329 87.8 340.6 88.3 340.3C88.7 340.1 89 329.6 89 316.9C89 291.6 87.3 276.9 82.5 261C78.7 248.4 77.3 237.3 75.9 208.8C74.3 175 74.8 168.1 79.8 153.8C85.2 138.3 94.3 116.5 102.9 98C108.6 85.8 110.8 82.1 113.3 80.4C116.2 78.6 116.5 78 116.3 73.7C116 68.2 117.2 67.7 119.7 72.2C123.2 79 121.8 89.4 113.3 118C110.8 126.5 107.3 139.3 105.5 146.5L102.3 159.5L104.5 165.5C105.8 168.8 109.6 178 113 186C116.4 194 120.7 204.9 122.5 210.2L125.7 219.9L130.7 214.7C133.4 211.8 139.1 205.4 143.2 200.5C156.3 184.9 165.1 177.6 175.5 173.9C178.2 172.9 179.7 172.1 178.8 172C176.3 172 168.5 175.6 163.2 179.2C157.7 183 146.7 194 140.3 202.2C137.8 205.4 135.3 208 134.8 208C134.4 208 133.1 206.5 131.9 204.7C129.3 200.4 129.7 191.6 133.2 179.5C134.7 174.5 136.4 167.7 137.1 164.2C138.6 156.3 141.7 151.4 155.8 134.8C168.6 119.6 171.5 114.6 170.6 109.5C170.2 107.6 169.6 105.8 169.1 105.6C168.7 105.3 165.1 107.8 161.1 111.1C157.2 114.4 154 116.8 154 116.5C154 116.2 157 111.8 160.6 106.7C164.3 101.6 167.9 96.1 168.6 94.3C170.5 89.9 170.3 84.6 168.3 82.1L166.5 80L160.7 85C157.5 87.7 154.7 90 154.6 90C154.4 90 154.5 86.5 154.8 82.2C155.1 76.5 154.8 73.5 153.6 70.6C152 66.7 152 66.7 149.9 68.6C147.3 70.9 133.7 88.3 125 100.4C121.5 105.3 118.4 108.8 118.2 108.2C118 107.6 118.8 103.4 119.8 98.8C122.7 86.6 123.3 80.8 122.1 76.3C121 72.3 117.6 67 116.1 67C115.7 67 114.3 69.6 113 72.7ZM153 72.6C156.3 82.6 151.7 96.2 139.5 112C129.3 125.2 125.4 131.1 121.1 139.8C116.8 148.2 111 164.6 111 168.3C111 169.5 110.6 171.1 110.1 171.9C109.4 173 108.9 172.6 107.7 170.4C102.9 160.9 103.1 157.9 110.5 131.9C115.2 115.3 114.9 115.8 132.4 92.2C139.4 82.8 142 80 143.7 80C147.1 80 150 76.6 150 72.5C150 68 151.5 68 153 72.6ZM149 74.5C149 76 144.3 79.6 143.5 78.8C142.8 78.1 146.9 73 148.1 73C148.6 73 149 73.7 149 74.5ZM116 75.3C116 77.2 113.3 80.6 112.4 79.8C111.5 78.8 113.6 74 115 74C115.5 74 116 74.6 116 75.3ZM168.6 85.6C170.1 91.6 167.8 95.5 140.6 132C133.5 141.6 126.9 151.5 126 154C125 156.5 123.5 163.6 122.5 169.8C121.5 176.1 120.2 181.7 119.5 182.3C118.6 183.3 119.5 184.1 123.7 185.9C128.7 188.1 129.1 188.6 129 191.4C128.5 199.4 129.1 202.9 131.4 206.3C133.1 208.8 133.5 210.1 132.7 210.9C131.9 211.7 131.1 211.5 129.9 210.4C128.6 209.2 127.7 209.1 126.2 209.9C124.3 210.9 124 210.5 122.5 206.1C121.6 203.4 118.7 196.1 116 190C113.2 183.8 111 177.3 111 175.6C111 171.7 114.2 158.7 117.1 151C120.9 140.9 126.9 130.6 136.1 118.5C141.1 111.9 146.8 103.8 148.7 100.5C152.5 94.2 156.8 89 158.2 89C158.7 89 160.2 87.8 161.5 86.2C162.8 84.7 164.2 83.9 164.7 84.3C165.1 84.8 164.4 86 163.1 87.1C161.8 88.1 161.1 89 161.6 89C162.9 89 166 85.8 166 84.3C166 82 167.9 82.9 168.6 85.6ZM169.3 113C168.2 117.8 165.8 121.3 152.8 136.8C138.7 153.6 137.3 156 134.6 170C132.7 179.3 130.2 187 128.9 187C128.5 187 126.6 186.1 124.7 185C121.4 183 121.3 182.8 122.1 179.2C122.6 177.2 123.5 171.8 124.1 167.2C125.6 155.6 127.7 150.7 135.1 141C142.8 130.9 159.8 113 161.7 113C162.5 113 162.9 112.6 162.5 112.1C161.9 111 166 107.9 167.2 108.6C167.6 108.9 168 108.5 168.1 107.8C168.1 107.1 168.5 107.4 169 108.5C169.4 109.6 169.6 111.6 169.3 113ZM129 212.4C129 215.4 126.3 217.9 125.4 215.7C124.8 214 126.6 210 128 210C128.6 210 129 211.1 129 212.4Z"/>
</mask>
<path d="M113 72.7C111.7 75.9 107 86.4 102.5 96C91.2 120.2 77.4 155 75.5 163.8C73.6 172.9 73.6 186.4 75.5 218.5C77 243.2 77.7 248.4 81.8 263C86.7 280.6 87.4 287.1 87.5 314.7C87.5 329 87.8 340.6 88.3 340.3C88.7 340.1 89 329.6 89 316.9C89 291.6 87.3 276.9 82.5 261C78.7 248.4 77.3 237.3 75.9 208.8C74.3 175 74.8 168.1 79.8 153.8C85.2 138.3 94.3 116.5 102.9 98C108.6 85.8 110.8 82.1 113.3 80.4C116.2 78.6 116.5 78 116.3 73.7C116 68.2 117.2 67.7 119.7 72.2C123.2 79 121.8 89.4 113.3 118C110.8 126.5 107.3 139.3 105.5 146.5L102.3 159.5L104.5 165.5C105.8 168.8 109.6 178 113 186C116.4 194 120.7 204.9 122.5 210.2L125.7 219.9L130.7 214.7C133.4 211.8 139.1 205.4 143.2 200.5C156.3 184.9 165.1 177.6 175.5 173.9C178.2 172.9 179.7 172.1 178.8 172C176.3 172 168.5 175.6 163.2 179.2C157.7 183 146.7 194 140.3 202.2C137.8 205.4 135.3 208 134.8 208C134.4 208 133.1 206.5 131.9 204.7C129.3 200.4 129.7 191.6 133.2 179.5C134.7 174.5 136.4 167.7 137.1 164.2C138.6 156.3 141.7 151.4 155.8 134.8C168.6 119.6 171.5 114.6 170.6 109.5C170.2 107.6 169.6 105.8 169.1 105.6C168.7 105.3 165.1 107.8 161.1 111.1C157.2 114.4 154 116.8 154 116.5C154 116.2 157 111.8 160.6 106.7C164.3 101.6 167.9 96.1 168.6 94.3C170.5 89.9 170.3 84.6 168.3 82.1L166.5 80L160.7 85C157.5 87.7 154.7 90 154.6 90C154.4 90 154.5 86.5 154.8 82.2C155.1 76.5 154.8 73.5 153.6 70.6C152 66.7 152 66.7 149.9 68.6C147.3 70.9 133.7 88.3 125 100.4C121.5 105.3 118.4 108.8 118.2 108.2C118 107.6 118.8 103.4 119.8 98.8C122.7 86.6 123.3 80.8 122.1 76.3C121 72.3 117.6 67 116.1 67C115.7 67 114.3 69.6 113 72.7ZM153 72.6C156.3 82.6 151.7 96.2 139.5 112C129.3 125.2 125.4 131.1 121.1 139.8C116.8 148.2 111 164.6 111 168.3C111 169.5 110.6 171.1 110.1 171.9C109.4 173 108.9 172.6 107.7 170.4C102.9 160.9 103.1 157.9 110.5 131.9C115.2 115.3 114.9 115.8 132.4 92.2C139.4 82.8 142 80 143.7 80C147.1 80 150 76.6 150 72.5C150 68 151.5 68 153 72.6ZM149 74.5C149 76 144.3 79.6 143.5 78.8C142.8 78.1 146.9 73 148.1 73C148.6 73 149 73.7 149 74.5ZM116 75.3C116 77.2 113.3 80.6 112.4 79.8C111.5 78.8 113.6 74 115 74C115.5 74 116 74.6 116 75.3ZM168.6 85.6C170.1 91.6 167.8 95.5 140.6 132C133.5 141.6 126.9 151.5 126 154C125 156.5 123.5 163.6 122.5 169.8C121.5 176.1 120.2 181.7 119.5 182.3C118.6 183.3 119.5 184.1 123.7 185.9C128.7 188.1 129.1 188.6 129 191.4C128.5 199.4 129.1 202.9 131.4 206.3C133.1 208.8 133.5 210.1 132.7 210.9C131.9 211.7 131.1 211.5 129.9 210.4C128.6 209.2 127.7 209.1 126.2 209.9C124.3 210.9 124 210.5 122.5 206.1C121.6 203.4 118.7 196.1 116 190C113.2 183.8 111 177.3 111 175.6C111 171.7 114.2 158.7 117.1 151C120.9 140.9 126.9 130.6 136.1 118.5C141.1 111.9 146.8 103.8 148.7 100.5C152.5 94.2 156.8 89 158.2 89C158.7 89 160.2 87.8 161.5 86.2C162.8 84.7 164.2 83.9 164.7 84.3C165.1 84.8 164.4 86 163.1 87.1C161.8 88.1 161.1 89 161.6 89C162.9 89 166 85.8 166 84.3C166 82 167.9 82.9 168.6 85.6ZM169.3 113C168.2 117.8 165.8 121.3 152.8 136.8C138.7 153.6 137.3 156 134.6 170C132.7 179.3 130.2 187 128.9 187C128.5 187 126.6 186.1 124.7 185C121.4 183 121.3 182.8 122.1 179.2C122.6 177.2 123.5 171.8 124.1 167.2C125.6 155.6 127.7 150.7 135.1 141C142.8 130.9 159.8 113 161.7 113C162.5 113 162.9 112.6 162.5 112.1C161.9 111 166 107.9 167.2 108.6C167.6 108.9 168 108.5 168.1 107.8C168.1 107.1 168.5 107.4 169 108.5C169.4 109.6 169.6 111.6 169.3 113ZM129 212.4C129 215.4 126.3 217.9 125.4 215.7C124.8 214 126.6 210 128 210C128.6 210 129 211.1 129 212.4Z" fill="white"/>
<path d="M113 72.7C111.7 75.9 107 86.4 102.5 96C91.2 120.2 77.4 155 75.5 163.8C73.6 172.9 73.6 186.4 75.5 218.5C77 243.2 77.7 248.4 81.8 263C86.7 280.6 87.4 287.1 87.5 314.7C87.5 329 87.8 340.6 88.3 340.3C88.7 340.1 89 329.6 89 316.9C89 291.6 87.3 276.9 82.5 261C78.7 248.4 77.3 237.3 75.9 208.8C74.3 175 74.8 168.1 79.8 153.8C85.2 138.3 94.3 116.5 102.9 98C108.6 85.8 110.8 82.1 113.3 80.4C116.2 78.6 116.5 78 116.3 73.7C116 68.2 117.2 67.7 119.7 72.2C123.2 79 121.8 89.4 113.3 118C110.8 126.5 107.3 139.3 105.5 146.5L102.3 159.5L104.5 165.5C105.8 168.8 109.6 178 113 186C116.4 194 120.7 204.9 122.5 210.2L125.7 219.9L130.7 214.7C133.4 211.8 139.1 205.4 143.2 200.5C156.3 184.9 165.1 177.6 175.5 173.9C178.2 172.9 179.7 172.1 178.8 172C176.3 172 168.5 175.6 163.2 179.2C157.7 183 146.7 194 140.3 202.2C137.8 205.4 135.3 208 134.8 208C134.4 208 133.1 206.5 131.9 204.7C129.3 200.4 129.7 191.6 133.2 179.5C134.7 174.5 136.4 167.7 137.1 164.2C138.6 156.3 141.7 151.4 155.8 134.8C168.6 119.6 171.5 114.6 170.6 109.5C170.2 107.6 169.6 105.8 169.1 105.6C168.7 105.3 165.1 107.8 161.1 111.1C157.2 114.4 154 116.8 154 116.5C154 116.2 157 111.8 160.6 106.7C164.3 101.6 167.9 96.1 168.6 94.3C170.5 89.9 170.3 84.6 168.3 82.1L166.5 80L160.7 85C157.5 87.7 154.7 90 154.6 90C154.4 90 154.5 86.5 154.8 82.2C155.1 76.5 154.8 73.5 153.6 70.6C152 66.7 152 66.7 149.9 68.6C147.3 70.9 133.7 88.3 125 100.4C121.5 105.3 118.4 108.8 118.2 108.2C118 107.6 118.8 103.4 119.8 98.8C122.7 86.6 123.3 80.8 122.1 76.3C121 72.3 117.6 67 116.1 67C115.7 67 114.3 69.6 113 72.7ZM153 72.6C156.3 82.6 151.7 96.2 139.5 112C129.3 125.2 125.4 131.1 121.1 139.8C116.8 148.2 111 164.6 111 168.3C111 169.5 110.6 171.1 110.1 171.9C109.4 173 108.9 172.6 107.7 170.4C102.9 160.9 103.1 157.9 110.5 131.9C115.2 115.3 114.9 115.8 132.4 92.2C139.4 82.8 142 80 143.7 80C147.1 80 150 76.6 150 72.5C150 68 151.5 68 153 72.6ZM149 74.5C149 76 144.3 79.6 143.5 78.8C142.8 78.1 146.9 73 148.1 73C148.6 73 149 73.7 149 74.5ZM116 75.3C116 77.2 113.3 80.6 112.4 79.8C111.5 78.8 113.6 74 115 74C115.5 74 116 74.6 116 75.3ZM168.6 85.6C170.1 91.6 167.8 95.5 140.6 132C133.5 141.6 126.9 151.5 126 154C125 156.5 123.5 163.6 122.5 169.8C121.5 176.1 120.2 181.7 119.5 182.3C118.6 183.3 119.5 184.1 123.7 185.9C128.7 188.1 129.1 188.6 129 191.4C128.5 199.4 129.1 202.9 131.4 206.3C133.1 208.8 133.5 210.1 132.7 210.9C131.9 211.7 131.1 211.5 129.9 210.4C128.6 209.2 127.7 209.1 126.2 209.9C124.3 210.9 124 210.5 122.5 206.1C121.6 203.4 118.7 196.1 116 190C113.2 183.8 111 177.3 111 175.6C111 171.7 114.2 158.7 117.1 151C120.9 140.9 126.9 130.6 136.1 118.5C141.1 111.9 146.8 103.8 148.7 100.5C152.5 94.2 156.8 89 158.2 89C158.7 89 160.2 87.8 161.5 86.2C162.8 84.7 164.2 83.9 164.7 84.3C165.1 84.8 164.4 86 163.1 87.1C161.8 88.1 161.1 89 161.6 89C162.9 89 166 85.8 166 84.3C166 82 167.9 82.9 168.6 85.6ZM169.3 113C168.2 117.8 165.8 121.3 152.8 136.8C138.7 153.6 137.3 156 134.6 170C132.7 179.3 130.2 187 128.9 187C128.5 187 126.6 186.1 124.7 185C121.4 183 121.3 182.8 122.1 179.2C122.6 177.2 123.5 171.8 124.1 167.2C125.6 155.6 127.7 150.7 135.1 141C142.8 130.9 159.8 113 161.7 113C162.5 113 162.9 112.6 162.5 112.1C161.9 111 166 107.9 167.2 108.6C167.6 108.9 168 108.5 168.1 107.8C168.1 107.1 168.5 107.4 169 108.5C169.4 109.6 169.6 111.6 169.3 113ZM129 212.4C129 215.4 126.3 217.9 125.4 215.7C124.8 214 126.6 210 128 210C128.6 210 129 211.1 129 212.4Z" stroke="white" stroke-width="4" mask="url(#path-3-outside-2_368_83)"/>
<path d="M163.367 112.05C163.538 111.805 163.793 111.477 164.117 111.078C164.488 110.602 164.887 110.149 165.23 109.805C165.401 109.635 165.574 109.475 165.733 109.351C165.811 109.29 165.907 109.221 166.011 109.163C166.078 109.126 166.303 109 166.6 109C166.843 109 167.578 109.045 167.879 109.753C168.016 110.074 167.982 110.377 167.929 110.576C167.876 110.777 167.786 110.952 167.7 111.09C167.378 111.608 166.734 112.224 165.931 112.876C165.528 113.203 165.197 113.461 164.95 113.633C164.832 113.714 164.696 113.803 164.562 113.867C164.501 113.897 164.382 113.95 164.232 113.978C164.132 113.996 163.677 114.066 163.305 113.695C162.934 113.323 163.004 112.868 163.022 112.768C163.05 112.618 163.104 112.499 163.133 112.438C163.197 112.304 163.286 112.168 163.367 112.05ZM166.015 110.01C166.015 110.01 166.014 110.011 166.014 110.012L166.015 110.01Z" fill="white" stroke="white" stroke-width="2"/>
<path d="M244.2 110.7L244.554 103H244.6V102L243.601 101.954L243.599 102H214.9H186.103L186.097 101.927L185.1 102V103H185.173L245.199 110.742C245.098 113.279 244.844 115.696 244.524 117.592C244.364 118.538 244.184 119.372 243.994 120.033C243.899 120.363 243.796 120.666 243.686 120.925C243.582 121.168 243.444 121.44 243.253 121.659L243.253 121.659L243.25 121.661C243.251 121.66 243.252 121.66 243.252 121.66C243.253 121.66 243.208 121.723 243.137 121.906C243.062 122.1 242.98 122.37 242.893 122.722C242.721 123.426 242.551 124.387 242.391 125.583C242.071 127.97 241.798 131.216 241.599 135.052L241.598 135.058C241.2 141.933 240.699 150.364 240.294 153.807L239.695 159.898L239.607 160.796L238.704 160.8L215.004 160.9L191.204 161L190.299 161.004L190.205 160.103L189.605 154.303L189.605 154.303L189.605 154.296C189.302 151.172 188.801 142.948 188.402 136.058L188.401 136.051L188.401 136.043C188.252 132.62 187.954 129.248 187.608 126.565C187.435 125.223 187.251 124.064 187.07 123.161C186.88 122.22 186.713 121.663 186.606 121.447L187.5 121L186.606 121.447C186.379 120.994 186.177 120.342 185.995 119.609C185.809 118.858 185.629 117.956 185.464 116.964C185.133 114.981 184.855 112.6 184.702 110.269C184.702 110.268 184.702 110.266 184.702 110.265L184.103 102.073L184.024 101H185.1H214.9H244.6H245.647L245.599 102.046L245.199 110.74L244.2 110.7ZM244.2 110.7C244 115.7 243.2 120.2 242.5 121L244.2 110.7ZM239.106 122H215.1H191.032L191.1 124.169L191.1 124.184V124.2C191.1 125.872 191.641 133.357 192.215 141.282C192.242 141.662 192.27 142.043 192.297 142.424C192.297 142.425 192.297 142.427 192.297 142.428L193.424 156.512L214.71 156.8C214.71 156.8 214.711 156.8 214.712 156.8C224.982 156.9 230.482 156.924 233.472 156.727C234.991 156.627 235.725 156.475 236.087 156.319C236.242 156.252 236.275 156.206 236.275 156.206L236.275 156.206C236.278 156.202 236.3 156.175 236.33 156.057L236.336 156.035L236.342 156.013C236.39 155.854 236.469 155.417 236.565 154.679C236.656 153.972 236.755 153.057 236.854 151.994C237.053 149.871 237.252 147.184 237.402 144.446L237.402 144.436L237.403 144.427C237.564 142.21 237.742 139.66 237.917 137.159C238.174 133.471 238.424 129.887 238.603 127.621L238.604 127.611L239.106 122ZM188.701 104.639C188.695 104.647 188.69 104.656 188.684 104.666C188.608 104.793 188.514 105.01 188.423 105.34C188.241 105.995 188.109 106.927 188.049 108.054C187.928 110.293 188.097 113.13 188.579 115.697L189.099 118H215H240.841L241.41 114.26C241.91 110.403 242.092 107.966 241.942 106.448C241.868 105.694 241.72 105.272 241.57 105.037C241.447 104.842 241.299 104.734 241.048 104.668C241.048 104.668 241.047 104.668 241.046 104.667C241.034 104.665 240.975 104.654 240.841 104.64C240.7 104.624 240.512 104.608 240.276 104.592C239.805 104.56 239.171 104.53 238.392 104.502C236.836 104.447 234.732 104.4 232.258 104.362C227.313 104.287 220.916 104.25 214.538 104.25C208.159 104.25 201.805 104.287 196.948 104.362C194.519 104.4 192.469 104.447 190.98 104.502C190.234 104.53 189.637 104.56 189.207 104.592C188.991 104.608 188.826 104.623 188.711 104.638C188.707 104.638 188.704 104.639 188.701 104.639ZM188.744 104.582C188.744 104.582 188.743 104.583 188.741 104.585C188.743 104.583 188.744 104.582 188.744 104.582Z" fill="white" stroke="white" stroke-width="2"/>
<path d="M161.102 229.232L157.771 236.18L159.256 241.006L159.258 241.014C164.567 258.777 160.847 276.086 147.727 295.363L147.725 295.366C143.008 302.24 140.633 305.96 139.385 310.23C138.133 314.517 138 319.413 138 328.7C138 333.209 137.925 337.299 137.799 340.267C137.736 341.749 137.66 342.966 137.573 343.82C137.53 344.242 137.481 344.606 137.423 344.878C137.395 345.006 137.355 345.166 137.291 345.314C137.261 345.384 137.2 345.511 137.091 345.636C136.986 345.756 136.723 346 136.3 346C135.955 346 135.707 345.837 135.571 345.709C135.441 345.587 135.364 345.457 135.323 345.377C135.238 345.215 135.188 345.041 135.155 344.908C135.086 344.624 135.031 344.251 134.986 343.828C134.893 342.969 134.82 341.75 134.763 340.276C134.65 337.319 134.6 333.255 134.6 328.8H134.6L134.6 328.789C134.7 319.416 134.92 313.973 136.366 309.103C137.817 304.219 140.483 299.973 145.273 292.937L145.274 292.937C148.246 288.578 152.31 281.437 154.18 277.107C155.784 273.299 156.587 271.275 157.015 268.793C157.447 266.282 157.5 263.274 157.5 257.5C157.5 251.406 157.299 246.967 156.898 244.193C156.744 243.128 156.568 242.375 156.394 241.884C156.276 242.196 156.144 242.588 156.001 243.053C155.618 244.293 155.177 245.972 154.736 247.842C153.854 251.581 152.988 256.013 152.593 259.115C152.568 259.353 152.545 259.546 152.523 259.691C152.513 259.762 152.5 259.837 152.485 259.905C152.477 259.938 152.466 259.986 152.449 260.038L152.448 260.041C152.438 260.071 152.396 260.205 152.296 260.341C152.251 260.404 152.101 260.599 151.816 260.7C151.439 260.833 151.08 260.719 150.851 260.535C150.675 260.393 150.595 260.23 150.569 260.175C150.535 260.101 150.516 260.038 150.506 260.002C150.474 259.883 150.465 259.766 150.462 259.724C150.453 259.6 150.45 259.435 150.45 259.25C150.45 258.498 150.501 257 150.601 254.951L150.602 254.945C151.62 236.61 162.398 215.9 183.538 191.052L183.539 191.052C184.69 189.7 185.551 188.673 186.176 187.868C186.811 187.05 187.152 186.524 187.312 186.167C187.388 185.996 187.404 185.906 187.407 185.871C187.407 185.867 187.407 185.863 187.407 185.861C187.386 185.819 187.296 185.697 186.9 185.4C185.26 184.17 184.946 182.154 185.471 180.169C185.994 178.188 187.373 176.057 189.42 174.167C189.421 174.166 189.421 174.166 189.422 174.165L190.723 172.951L186.752 172.699L186.737 172.698L180.452 172.399L180.471 170.4L187.471 170.2L187.474 170.2C191.398 170.1 196.264 170.298 198.348 170.611L198.367 170.614L198.386 170.617L202.086 171.317L203.77 171.636L202.664 172.945L196.665 180.045C176.265 204.244 166.741 217.459 161.102 229.232L161.102 229.232ZM152.458 259.591C152.458 259.591 152.458 259.587 152.457 259.581C152.458 259.589 152.458 259.592 152.458 259.591ZM156.696 241.207C156.701 241.2 156.704 241.196 156.705 241.195C156.705 241.194 156.702 241.198 156.696 241.207ZM188.224 182.328C188.225 182.327 188.226 182.327 188.227 182.326C188.533 182.177 188.962 181.917 189.491 181.555C190.539 180.836 191.867 179.795 193.176 178.677C194.484 177.56 195.751 176.387 196.683 175.411C197.151 174.921 197.517 174.499 197.759 174.17C197.76 174.169 197.761 174.167 197.762 174.166C197.419 174.069 196.94 174 196.4 174C195.535 174 194.44 174.417 193.266 175.203C192.112 175.975 190.984 177.035 190.077 178.155C189.16 179.286 188.525 180.408 188.279 181.285C188.156 181.723 188.15 182.03 188.192 182.222C188.201 182.261 188.211 182.296 188.224 182.328ZM187.96 182.435C187.962 182.435 187.964 182.434 187.966 182.434C187.94 182.437 187.935 182.441 187.96 182.435ZM198.021 173.75C198.021 173.751 198.02 173.753 198.018 173.758C198.02 173.753 198.021 173.75 198.021 173.75Z" fill="white" stroke="white" stroke-width="2"/>
<path d="M350.706 239.99L350.707 239.982L350.708 239.974C350.883 238.6 351.022 237.534 351.136 236.763C351.193 236.378 351.245 236.055 351.295 235.8C351.34 235.567 351.395 235.32 351.471 235.129C351.493 235.075 351.525 235.002 351.572 234.925C351.612 234.858 351.702 234.723 351.86 234.606C352.042 234.472 352.345 234.346 352.706 234.43C353.023 234.503 353.208 234.7 353.286 234.798C353.432 234.98 353.491 235.181 353.511 235.247L353.511 235.248C353.542 235.35 353.565 235.458 353.584 235.56C353.656 235.954 353.722 236.597 353.796 237.409L353.798 237.429L353.799 237.449C353.906 239.535 353.481 242.944 352.543 247.67C351.6 252.425 350.119 258.598 348.066 266.259C343.499 283.336 341.304 309.722 342.797 330.127L342.797 330.127L342.798 330.133C342.999 333.149 343.1 335.869 343.112 337.844C343.119 338.827 343.103 339.643 343.065 340.222C343.046 340.506 343.02 340.767 342.98 340.974C342.961 341.068 342.929 341.211 342.866 341.353C342.835 341.421 342.771 341.549 342.653 341.674C342.529 341.805 342.275 342 341.9 342C341.439 342 341.141 341.732 341.004 341.572C340.861 341.407 340.769 341.221 340.708 341.076C340.582 340.778 340.484 340.398 340.401 339.988C340.232 339.152 340.086 337.976 339.96 336.562C339.707 333.723 339.525 329.801 339.425 325.435C339.225 316.705 339.349 306.119 339.903 298.725L339.903 298.724C341.108 282.861 342.919 272.197 347.435 255.837C348.828 250.661 350.314 243.518 350.706 239.99ZM342.566 340.332C342.566 340.332 342.566 340.331 342.565 340.329C342.566 340.331 342.566 340.332 342.566 340.332ZM341.012 340.613C341.012 340.613 341.012 340.612 341.013 340.608C341.012 340.611 341.012 340.613 341.012 340.613Z" fill="white" stroke="white" stroke-width="2"/>
<line y1="379.5" x2="425" y2="379.5" stroke="white" stroke-width="5"/>
<line y1="472.5" x2="425" y2="472.5" stroke="white" stroke-width="5"/>
<path d="M88.304 450V406.364H104.668C108.02 406.364 110.832 406.989 113.105 408.239C115.392 409.489 117.118 411.207 118.283 413.395C119.462 415.568 120.051 418.04 120.051 420.81C120.051 423.608 119.462 426.094 118.283 428.267C117.104 430.44 115.364 432.152 113.062 433.402C110.761 434.638 107.928 435.256 104.561 435.256H93.7159V428.757H103.496C105.456 428.757 107.061 428.416 108.311 427.734C109.561 427.053 110.484 426.115 111.081 424.922C111.692 423.729 111.997 422.358 111.997 420.81C111.997 419.261 111.692 417.898 111.081 416.719C110.484 415.54 109.554 414.624 108.29 413.97C107.04 413.303 105.428 412.969 103.453 412.969H96.2088V450H88.304ZM137.289 406.364V450H129.576V406.364H137.289ZM157.638 450.661C155.565 450.661 153.697 450.291 152.035 449.553C150.387 448.8 149.08 447.692 148.114 446.229C147.163 444.766 146.687 442.962 146.687 440.817C146.687 438.97 147.028 437.443 147.71 436.236C148.391 435.028 149.322 434.062 150.501 433.338C151.68 432.614 153.008 432.067 154.485 431.697C155.977 431.314 157.518 431.037 159.109 430.866C161.026 430.668 162.582 430.49 163.775 430.334C164.968 430.163 165.835 429.908 166.374 429.567C166.928 429.212 167.205 428.665 167.205 427.926V427.798C167.205 426.193 166.729 424.95 165.778 424.07C164.826 423.189 163.455 422.749 161.665 422.749C159.776 422.749 158.278 423.161 157.17 423.984C156.076 424.808 155.337 425.781 154.954 426.903L147.752 425.881C148.32 423.892 149.258 422.23 150.565 420.895C151.871 419.545 153.469 418.537 155.359 417.869C157.248 417.188 159.336 416.847 161.623 416.847C163.2 416.847 164.769 417.031 166.332 417.401C167.894 417.77 169.322 418.381 170.614 419.233C171.907 420.071 172.944 421.214 173.725 422.663C174.521 424.112 174.918 425.923 174.918 428.097V450H167.504V445.504H167.248C166.779 446.413 166.119 447.266 165.266 448.061C164.428 448.842 163.37 449.474 162.092 449.957C160.827 450.426 159.343 450.661 157.638 450.661ZM159.641 444.993C161.19 444.993 162.532 444.687 163.668 444.077C164.805 443.452 165.678 442.628 166.289 441.605C166.914 440.582 167.227 439.467 167.227 438.26V434.403C166.985 434.602 166.573 434.787 165.991 434.957C165.423 435.128 164.783 435.277 164.073 435.405C163.363 435.533 162.66 435.646 161.964 435.746C161.268 435.845 160.664 435.93 160.153 436.001C159.002 436.158 157.972 436.413 157.063 436.768C156.154 437.124 155.437 437.621 154.911 438.26C154.386 438.885 154.123 439.695 154.123 440.689C154.123 442.109 154.641 443.182 155.678 443.906C156.715 444.631 158.036 444.993 159.641 444.993ZM193.387 430.824V450H185.674V417.273H193.046V422.834H193.43C194.183 421.001 195.383 419.545 197.031 418.466C198.692 417.386 200.745 416.847 203.188 416.847C205.447 416.847 207.414 417.33 209.09 418.295C210.781 419.261 212.087 420.661 213.011 422.493C213.948 424.325 214.41 426.548 214.396 429.162V450H206.683V430.355C206.683 428.168 206.114 426.456 204.978 425.22C203.856 423.984 202.3 423.366 200.312 423.366C198.962 423.366 197.762 423.665 196.711 424.261C195.674 424.844 194.857 425.689 194.261 426.797C193.678 427.905 193.387 429.247 193.387 430.824ZM241.579 417.273V423.239H222.765V417.273H241.579ZM227.41 409.432H235.123V440.156C235.123 441.193 235.279 441.989 235.592 442.543C235.918 443.082 236.344 443.452 236.87 443.651C237.396 443.849 237.978 443.949 238.617 443.949C239.1 443.949 239.54 443.913 239.938 443.842C240.35 443.771 240.663 443.707 240.876 443.651L242.175 449.68C241.763 449.822 241.174 449.979 240.407 450.149C239.654 450.32 238.731 450.419 237.637 450.447C235.705 450.504 233.965 450.213 232.417 449.574C230.869 448.92 229.64 447.912 228.731 446.548C227.836 445.185 227.396 443.48 227.41 441.435V409.432ZM252.074 406.364H261.747L274.701 437.983H275.213L288.167 406.364H297.841V450H290.255V420.021H289.85L277.791 449.872H272.123L260.064 419.957H259.659V450H252.074V406.364ZM323.596 450.639C320.315 450.639 317.481 449.957 315.095 448.594C312.723 447.216 310.897 445.27 309.619 442.756C308.341 440.227 307.701 437.251 307.701 433.828C307.701 430.462 308.341 427.507 309.619 424.964C310.912 422.408 312.716 420.419 315.031 418.999C317.346 417.564 320.066 416.847 323.191 416.847C325.208 416.847 327.112 417.173 328.902 417.827C330.706 418.466 332.297 419.46 333.674 420.81C335.066 422.159 336.16 423.878 336.956 425.966C337.751 428.04 338.149 430.511 338.149 433.381V435.746H311.324V430.547H330.755C330.741 429.07 330.422 427.756 329.797 426.605C329.172 425.44 328.298 424.524 327.176 423.857C326.068 423.189 324.775 422.855 323.298 422.855C321.721 422.855 320.336 423.239 319.143 424.006C317.95 424.759 317.02 425.753 316.352 426.989C315.699 428.21 315.365 429.553 315.35 431.016V435.554C315.35 437.457 315.699 439.091 316.395 440.455C317.091 441.804 318.064 442.841 319.314 443.565C320.564 444.276 322.027 444.631 323.703 444.631C324.825 444.631 325.841 444.474 326.75 444.162C327.659 443.835 328.447 443.359 329.115 442.734C329.782 442.109 330.287 441.335 330.627 440.412L337.829 441.222C337.375 443.125 336.508 444.787 335.23 446.207C333.966 447.614 332.346 448.707 330.372 449.489C328.397 450.256 326.139 450.639 323.596 450.639Z" fill="white"/>
</svg>
