<svg width="272" height="268" viewBox="0 0 272 268" fill="none" xmlns="http://www.w3.org/2000/svg">
<path fill-rule="evenodd" clip-rule="evenodd" d="M123.03 29.9374C148.163 36.2515 155.285 66.8341 174.68 84.0206C196.759 103.585 239.579 106.302 242.354 135.671C245.106 164.81 208.743 180.366 185.456 198.097C166.544 212.498 146.727 224.675 123.03 226.531C97.0569 228.566 70.927 224.214 49.9895 208.711C25.3909 190.497 2.85974 166.173 0.319881 135.671C-2.37359 103.324 12.131 70.5501 36.7208 49.3621C59.9447 29.3511 93.2976 22.468 123.03 29.9374Z" fill="#CAEFFF"/>
<g clip-path="url(#clip0_314_2)">
<path d="M144.777 123.991L135.591 153.626C140.951 151.163 146.585 151.148 150.807 151.941C153.34 148.344 156.979 145.476 161.375 144.046C167.641 141.992 174.235 142.619 180.649 145.767C191.407 151.121 198.91 161.568 200.698 173.68C201.621 179.852 201.344 186.426 199.918 193.245C199.809 193.806 199.583 194.338 199.253 194.804C198.924 195.271 198.499 195.663 198.007 195.953C197.515 196.243 196.967 196.425 196.399 196.488C195.831 196.55 195.256 196.491 194.713 196.315C193.929 196.072 193.206 195.633 192.685 194.956C192.631 194.853 188.141 189.38 180.105 186.889C177.831 186.184 175.46 185.793 173.095 185.661C173.095 185.661 168.5 185.655 163.286 184.038C154.584 181.341 149.095 175.901 147.415 168.291C146.769 165.384 146.799 162.515 147.363 159.725C142.733 159.278 135.018 160.324 130.414 170.325L113.5 224.891C112.831 227.047 110.52 228.264 108.364 227.596C106.208 226.928 104.991 224.617 105.66 222.461L122.574 167.895C124.422 157.082 118.64 151.895 114.593 149.566C113.48 152.186 111.882 154.569 109.705 156.601C104.015 161.927 96.4118 163.308 87.7095 160.611C85.1223 159.809 82.8675 158.766 81.2521 157.879C79.6245 157.03 78.6242 156.376 78.5187 156.301C76.6383 155.159 74.5011 154.153 72.2276 153.448C64.1525 150.945 57.3412 152.959 57.2899 152.986C56.4898 153.21 55.6329 153.202 54.8489 152.959C54.1825 152.753 53.5255 152.377 53.0199 151.791C51.9693 150.606 51.6741 148.925 52.2534 147.472C54.9734 141.053 58.464 135.476 62.7159 130.907C71.0414 121.93 83.1379 117.559 95.0376 119.229C102.108 120.26 107.901 123.474 111.906 128.711C114.722 132.377 116.101 136.8 116.155 141.2C120.086 142.934 124.723 146.133 127.751 151.196L136.937 121.561C138.785 110.748 133.015 105.522 128.955 103.232C127.843 105.852 126.245 108.236 124.068 110.268C118.378 115.593 110.775 116.974 102.072 114.277C99.4851 113.475 97.2304 112.432 95.6149 111.545C94.677 111.067 93.7646 110.54 92.8815 109.967C91.0133 108.786 88.864 107.819 86.5904 107.115C78.4761 104.599 71.7162 106.586 71.6256 106.6C70.8526 106.876 69.9957 106.869 69.2117 106.626C68.5453 106.419 67.9005 106.004 67.3827 105.457C66.3321 104.272 66.0369 102.591 66.6284 101.098C69.3484 94.6803 72.839 89.1026 77.0788 84.5734C85.4164 75.5571 97.5007 71.2254 109.4 72.8947C116.522 73.8993 122.263 77.1399 126.268 82.3773C129.085 86.0431 130.464 90.4664 130.518 94.8657C134.449 96.5999 139.086 99.7989 142.114 104.862L151.3 75.2273C153.199 64.3871 147.39 59.149 143.33 56.8594C142.218 59.4791 140.619 61.8625 138.443 63.8946C132.753 69.2203 125.15 70.6014 116.447 67.9038C113.86 67.1018 111.605 66.0591 109.978 65.2109C108.35 64.3626 107.362 63.6696 107.257 63.5939C105.376 62.4525 103.239 61.4463 100.965 60.7415C92.8903 58.2383 86.079 60.2517 86.0277 60.2787C85.2276 60.5034 84.3707 60.4955 83.5867 60.2525C83.0413 60.0839 82.5369 59.8036 82.1055 59.4296C81.6742 59.0555 81.3254 58.5958 81.0813 58.0797C80.8372 57.5636 80.7032 57.0024 80.6877 56.4316C80.6722 55.8609 80.7756 55.2932 80.9913 54.7646C83.7112 48.3465 87.2019 42.7688 91.4538 38.2004C99.7792 29.2232 111.876 24.8524 123.763 26.5609C130.858 27.5141 136.638 30.7668 140.643 36.0042C143.46 39.6701 144.878 44.1055 144.881 48.5319C150.198 50.7819 156.666 55.8373 158.975 64.3298C165.616 58.5686 173.797 58.0969 179.545 59.2344C182.078 55.6371 185.717 52.7692 190.113 51.3391C196.378 49.2854 202.985 49.8725 209.375 53.0993C220.145 58.4142 227.648 68.8608 229.436 80.973C230.359 87.1453 230.082 93.7194 228.656 100.539C228.339 102.116 227.144 103.335 225.569 103.706C224.871 103.877 224.105 103.854 223.439 103.648C222.655 103.405 221.943 102.926 221.423 102.249C221.369 102.147 216.878 96.6729 208.842 94.1819C206.569 93.4771 204.198 93.0859 201.833 92.9542C201.821 92.9934 197.238 92.9476 192.024 91.3315C183.322 88.6339 177.833 83.1943 176.153 75.5841C175.495 72.7163 175.525 69.8469 176.128 67.0693C171.498 66.622 163.744 67.6558 159.152 77.6184L149.953 107.292C155.314 104.829 160.921 104.763 165.17 105.607C167.703 102.01 171.342 99.1422 175.738 97.7122C182.003 95.6585 188.571 96.2334 195.012 99.4332C205.77 104.787 213.285 115.195 215.061 127.346C215.996 133.479 215.719 140.053 214.293 146.872C213.976 148.45 212.782 149.669 211.206 150.04C210.508 150.211 209.742 150.188 209.076 149.981C208.292 149.738 207.581 149.26 207.06 148.583C206.994 148.52 202.543 143.058 194.468 140.555C192.194 139.85 189.835 139.42 187.458 139.327C187.458 139.327 182.863 139.321 177.649 137.705C168.947 135.007 163.458 129.567 161.778 121.957C161.132 119.05 161.162 116.181 161.726 113.391C157.083 112.983 149.369 114.029 144.777 123.991Z" fill="#25B39E"/>
</g>
<defs>
<clipPath id="clip0_314_2">
<rect width="213.406" height="213.406" fill="white" transform="translate(67.1865) rotate(17.2227)"/>
</clipPath>
</defs>
</svg>
