<svg width="213" height="201" viewBox="0 0 213 201" fill="none" xmlns="http://www.w3.org/2000/svg">
<path fill-rule="evenodd" clip-rule="evenodd" d="M145.666 142.002C129.125 158.31 126.579 189.478 103.883 194.421C80.5466 199.502 59.4011 180.701 41.7293 164.636C25.2641 149.667 15.13 130.519 9.82026 108.91C3.38162 82.7059 -6.37741 53.2851 8.90437 31.0465C24.7128 8.04147 56.0013 -1.58825 83.7642 1.30351C107.984 3.82624 118.925 30.9842 139.108 44.6084C163.444 61.0358 210.002 58.5549 211.975 87.8498C213.968 117.449 166.791 121.174 145.666 142.002Z" fill="#CAEFFF"/>
<path d="M41.7392 139.59C55.0265 153.842 74.1409 161.042 98.5629 161.042C99.4907 161.042 100.419 161.042 101.347 161.005C106.283 167.723 110.959 174.961 114.819 182.458C115.487 183.757 116.787 184.499 118.123 184.499C118.679 184.499 119.273 184.351 119.793 184.091C121.649 183.163 122.354 180.899 121.426 179.08C119.347 174.998 117.046 171.026 114.597 167.203C114.3 160.745 115.302 154.176 117.158 147.644C146.627 143.635 168.748 131.573 182.815 111.827C208.127 76.3822 198.515 29.3941 198.106 27.427C197.698 25.5341 195.917 24.3093 193.987 24.4948C157.279 29.2456 131.558 43.0897 117.492 65.73C97.2267 98.3173 108.176 137.66 110.328 144.526V144.563C109.067 148.646 108.139 152.84 107.619 156.997C107.433 156.7 107.211 156.44 106.988 156.143C107.359 149.574 107.582 123.11 89.3211 102.437C75.3286 86.5518 53.9873 78.1637 25.8909 77.4956C23.9238 77.4585 22.2536 78.9802 22.1052 80.9474C22.0309 82.3949 19.8783 116.133 41.7392 139.59Z" fill="#60C5B8"/>
</svg>
