<svg width="223" height="247" viewBox="0 0 223 247" fill="none" xmlns="http://www.w3.org/2000/svg">
<path fill-rule="evenodd" clip-rule="evenodd" d="M147.708 55.569C172.397 66.694 179.29 93.6617 191.23 116.045C202.376 136.941 216.416 157.104 213.673 179.232C210.394 205.683 203.132 238.333 175.142 245.831C147.425 253.255 123.909 222.173 96.2538 210.685C73.0002 201.025 42.7723 204.05 28.3019 184.833C13.0818 164.62 18.9269 139.107 25.5899 116.842C32.4798 93.8202 42.9634 70.9868 65.8023 59.5272C89.9383 47.4168 121.342 43.6884 147.708 55.569Z" fill="#CAEFFF"/>
<path d="M131.032 12.2727C121.64 17.7101 114.621 26.4969 111.313 36.9587C108.005 47.4205 108.639 58.8261 113.094 69.0015C118.261 68.171 123.223 66.4167 127.751 63.8212C137.142 58.3838 144.161 49.597 147.469 39.1352C150.777 28.6734 150.143 17.2687 145.688 7.09326C140.522 7.92374 135.56 9.67721 131.032 12.2727ZM70.0597 38.2282C80.3661 38.2359 90.3098 42.074 97.9952 49.0113C105.681 55.9486 110.571 65.5006 111.733 75.8458C107.089 77.5942 102.175 78.4974 97.2186 78.5143C86.9122 78.5066 76.9689 74.6685 69.2836 67.7312C61.5982 60.7939 56.7078 51.2427 55.5449 40.8975C60.1892 39.1491 65.1034 38.2451 70.0597 38.2282ZM140.202 83.0907C133.283 83.0958 126.608 85.6189 121.449 90.1798C116.29 94.7408 113.007 101.02 112.226 107.822C115.344 108.971 118.643 109.566 121.97 109.577C128.889 109.572 135.565 107.048 140.724 102.487C145.883 97.9262 149.166 91.6462 149.946 84.8446C146.829 83.6952 143.53 83.1018 140.202 83.0907Z" fill="#60C5B8"/>
<path d="M66.9163 145.649L75.4243 221.997H147.69L156.198 145.649H66.9163Z" fill="#34485C"/>
<path fill-rule="evenodd" clip-rule="evenodd" d="M108.262 70.0583V128.336H115.2V70.0583H108.262Z" fill="#25B39E"/>
<path fill-rule="evenodd" clip-rule="evenodd" d="M83.7096 55.2619C82.9351 55.2665 82.1846 55.5299 81.5772 56.0106C80.9699 56.4912 80.541 57.1616 80.3586 57.9143C80.1762 58.667 80.2507 59.4591 80.5707 60.1644C80.8908 60.8697 81.4378 61.448 82.1243 61.8065L109.874 76.5487C110.278 76.7807 110.724 76.9288 111.186 76.9848C111.648 77.0409 112.116 77.0035 112.564 76.8747C113.011 76.7459 113.427 76.5285 113.789 76.2353C114.15 75.9421 114.449 75.5794 114.668 75.1683C114.886 74.7572 115.019 74.3058 115.06 73.8421C115.1 73.3784 115.047 72.912 114.903 72.4693C114.759 72.0267 114.528 71.6173 114.223 71.2659C113.917 70.9146 113.544 70.6284 113.126 70.4242L85.3763 55.682C84.865 55.4033 84.2919 55.2575 83.7096 55.2586V55.2619Z" fill="#25B39E"/>
<path fill-rule="evenodd" clip-rule="evenodd" d="M132.963 35.7639C132.398 35.7669 131.843 35.9078 131.344 36.1746C130.846 36.4415 130.42 36.8262 130.104 37.295L108.493 68.446C108.208 68.8184 108.002 69.245 107.886 69.6994C107.771 70.1537 107.748 70.6268 107.821 71.0899C107.893 71.5531 108.059 71.9967 108.308 72.3941C108.557 72.7914 108.883 73.1342 109.268 73.4018C109.653 73.6694 110.088 73.8559 110.547 73.9506C111.007 74.0453 111.48 74.0465 111.939 73.9532C112.399 73.8598 112.834 73.6742 113.22 73.4078C113.606 73.1413 113.934 72.7992 114.183 72.4025L135.809 41.2516C136.181 40.7313 136.403 40.1189 136.448 39.4808C136.494 38.8426 136.362 38.2043 136.068 37.6363C135.773 37.0683 135.327 36.5923 134.78 36.2618C134.232 35.9314 133.603 35.7594 132.963 35.7639ZM129.264 92.9847C128.717 93.0267 128.188 93.198 127.72 93.4843L112.327 102.59C111.535 103.059 110.962 103.824 110.733 104.715C110.504 105.607 110.639 106.553 111.108 107.346C111.577 108.138 112.341 108.712 113.233 108.94C114.125 109.169 115.071 109.034 115.864 108.565L131.256 99.4598C131.944 99.0705 132.479 98.4574 132.771 97.7229C133.064 96.9883 133.096 96.1759 132.864 95.4203C132.632 94.6646 132.148 94.0115 131.493 93.5682C130.839 93.1249 130.052 92.9184 129.264 92.983V92.9847Z" fill="#25B39E"/>
<path d="M61.4492 124.872H161.542C162.642 124.872 163.527 125.761 163.527 126.864V143.665C163.527 144.768 162.642 145.657 161.542 145.657H61.4492C60.3498 145.657 59.4646 144.768 59.4646 143.665V126.864C59.4646 125.761 60.3498 124.872 61.4492 124.872Z" fill="#2B4255"/>
</svg>
