<?xml version="1.0" standalone="no"?>
<!DOCTYPE svg PUBLIC "-//W3C//DTD SVG 20010904//EN"
 "http://www.w3.org/TR/2001/REC-SVG-20010904/DTD/svg10.dtd">
<svg version="1.0" xmlns="http://www.w3.org/2000/svg"
 width="591.000000pt" height="422.000000pt" viewBox="0 0 591.000000 422.000000"
 preserveAspectRatio="xMidYMid meet">

<g transform="translate(0.000000,422.000000) scale(0.100000,-0.100000)"
fill="#000000" stroke="none">
<path d="M3113 3389 c12 -88 88 -197 179 -255 47 -30 55 -45 68 -129 16 -98
-4 -221 -55 -347 -4 -10 -3 -18 2 -18 5 0 22 35 37 78 23 64 34 81 66 104 50
34 97 99 111 152 13 44 16 152 6 162 -12 13 -78 -48 -105 -97 -15 -27 -30 -49
-33 -49 -7 0 -49 167 -49 193 0 37 -34 121 -62 153 -35 39 -123 94 -152 94
-16 0 -18 -6 -13 -41z m89 -9 c25 -16 58 -44 72 -63 25 -33 65 -162 53 -173
-10 -11 -63 25 -106 71 -65 71 -116 195 -78 195 6 0 33 -14 59 -30z m316 -333
c-6 -73 -33 -131 -84 -183 -49 -48 -61 -35 -44 48 14 73 37 122 78 166 46 49
56 43 50 -31z"/>
<path d="M4253 2929 c-25 -37 -28 -52 -28 -118 0 -42 9 -112 19 -156 11 -44
20 -94 20 -111 1 -17 9 -42 18 -55 17 -26 82 -246 113 -379 17 -75 17 -75 -7
-138 -13 -35 -28 -62 -33 -60 -5 2 -19 41 -31 88 -48 187 -98 281 -272 511
-96 126 -134 208 -140 299 -4 76 9 136 28 125 5 -3 10 -21 10 -40 0 -36 28
-65 62 -65 17 0 95 -95 192 -233 27 -37 51 -66 53 -63 11 11 -307 426 -326
426 -17 0 -35 -80 -34 -153 l1 -78 -59 52 c-33 28 -61 50 -63 48 -15 -17 -26
-54 -26 -84 0 -44 16 -77 90 -180 91 -129 91 -132 -7 -45 -37 33 -71 60 -75
60 -11 0 -21 -66 -14 -93 9 -37 58 -104 176 -242 61 -71 117 -141 125 -155 7
-14 20 -59 30 -100 9 -41 26 -106 37 -145 46 -164 48 -230 7 -277 l-19 -23
-48 55 c-214 249 -326 322 -495 319 -145 -3 -144 6 -14 -150 180 -217 266
-341 315 -456 21 -49 21 -53 6 -95 -9 -23 -18 -83 -21 -133 -4 -73 -2 -103 15
-157 26 -84 71 -172 133 -264 80 -117 83 -128 90 -319 l6 -170 -1 175 c-1 199
0 194 -109 356 -30 45 -70 119 -88 165 -30 78 -33 92 -31 189 2 109 10 159 27
160 12 1 23 -37 41 -145 l13 -80 -4 72 c-5 78 -43 209 -82 288 -41 81 -123
202 -213 314 -71 88 -81 105 -67 113 27 15 20 45 -20 89 l-38 42 76 -5 c145
-9 243 -74 415 -273 115 -133 181 -202 187 -194 2 2 14 37 26 78 12 40 55 151
95 245 118 278 112 254 92 348 -10 44 -42 166 -73 272 -30 105 -64 227 -76
271 -26 103 -28 209 -4 253 25 45 39 41 31 -10 -7 -39 -5 -43 30 -73 27 -23
53 -66 105 -175 83 -178 234 -552 258 -640 19 -72 23 -220 12 -520 -4 -111 -4
-136 1 -70 4 58 11 193 15 300 7 188 6 199 -18 290 -28 108 -174 470 -267 665
-34 72 -78 166 -97 210 -19 44 -36 81 -38 83 -2 2 -16 -15 -32 -39z m-258 -55
c9 -14 14 -28 11 -31 -8 -9 -46 27 -46 44 0 21 16 15 35 -13z m320 -5 c19 -35
10 -54 -11 -25 -13 19 -20 56 -9 56 2 0 12 -14 20 -31z m-525 -83 c0 -17 27
-46 42 -46 6 0 0 9 -13 19 -13 11 -20 23 -16 28 5 4 19 -4 32 -19 13 -16 28
-28 33 -28 14 0 59 -53 81 -97 12 -24 61 -96 109 -160 120 -161 124 -167 170
-258 47 -95 87 -212 103 -301 l11 -64 -51 -119 c-28 -66 -51 -122 -51 -124 0
-3 -9 -26 -20 -52 -16 -38 -23 -45 -34 -36 -14 12 -46 5 -46 -10 0 -15 -20
-10 -27 7 -3 8 4 25 17 39 18 20 24 40 29 107 l6 83 53 21 c32 13 48 23 39 27
-9 3 -20 42 -31 114 -30 181 -37 196 -207 423 -214 286 -250 340 -256 388 -3
23 -3 48 0 57 8 19 27 20 27 1z m-2 -252 c28 -2 32 -5 32 -19 0 -8 6 -15 13
-15 38 0 321 -337 346 -412 10 -30 50 -255 51 -284 0 -14 -71 -47 -80 -37 -13
14 -30 75 -51 178 -12 55 -30 118 -42 140 -11 22 -62 89 -114 150 -134 155
-181 221 -189 260 -7 40 4 81 15 55 3 -8 12 -15 19 -16z m-260 -650 c30 -21
57 -73 44 -86 -7 -7 -27 5 -61 37 -28 26 -51 52 -51 56 0 15 44 10 68 -7z
m658 -368 c3 -8 4 -25 2 -38 l-3 -23 -18 27 c-18 26 -16 48 4 48 5 0 12 -6 15
-14z"/>
<path d="M2280 2903 c-13 -32 -60 -137 -105 -233 -113 -242 -251 -590 -270
-678 -19 -91 -19 -226 0 -547 15 -247 22 -299 63 -445 49 -176 56 -241 57
-517 0 -143 3 -259 8 -256 4 2 7 107 7 234 0 253 -17 400 -65 559 -38 126 -52
237 -66 522 -16 338 -11 407 39 550 54 155 145 373 231 558 57 122 79 159 104
176 29 18 32 24 30 67 -3 55 9 60 34 15 35 -68 21 -172 -64 -458 -25 -85 -60
-213 -78 -285 l-32 -130 22 -60 c13 -33 51 -125 85 -205 34 -80 77 -189 95
-242 l32 -97 50 52 c27 29 84 93 125 142 131 156 219 229 323 266 27 10 42 18
33 19 -25 0 -103 -36 -156 -72 -55 -38 -165 -148 -229 -230 -25 -32 -50 -58
-55 -58 -4 0 -17 15 -29 33 -26 43 -22 131 13 252 15 50 32 118 39 153 15 79
46 128 187 294 128 152 157 202 148 253 -4 19 -10 37 -15 39 -4 3 -40 -22 -80
-55 -39 -33 -71 -57 -71 -54 0 3 30 47 66 98 37 51 73 106 80 124 19 44 17 97
-3 122 l-18 21 -58 -50 c-32 -27 -60 -50 -61 -50 -2 0 -1 35 2 78 3 57 0 87
-12 116 -16 39 -16 39 -37 20 -26 -23 -162 -197 -249 -318 -35 -49 -66 -84
-68 -78 -2 6 6 48 16 94 29 122 35 180 23 225 -11 40 -45 93 -60 93 -4 0 -18
-26 -31 -57z m400 1 c33 -100 -13 -236 -135 -394 -102 -132 -141 -191 -184
-278 -43 -84 -101 -248 -101 -285 0 -12 -4 -28 -9 -36 -7 -11 -12 -7 -24 15
-48 95 -46 125 28 385 47 166 44 161 219 397 70 94 96 122 113 122 34 0 63 34
63 75 0 45 15 45 30 -1z m-40 -19 c0 -15 -47 -51 -55 -43 -7 7 34 58 46 58 5
0 9 -7 9 -15z m-330 -8 c0 -19 -27 -53 -36 -45 -9 10 12 58 26 58 5 0 10 -6
10 -13z m526 -103 c15 -60 -8 -99 -280 -464 -71 -96 -137 -195 -146 -220 -10
-25 -25 -96 -35 -158 -10 -63 -23 -119 -30 -125 -9 -10 0 -18 42 -36 50 -22
54 -27 53 -55 -5 -80 1 -115 24 -149 17 -25 21 -38 13 -46 -8 -8 -16 -6 -28 5
-13 12 -22 13 -37 5 -19 -10 -22 -6 -37 38 -9 27 -38 100 -65 161 -28 62 -50
127 -50 144 0 39 32 169 61 246 38 101 98 204 190 325 50 66 107 147 126 180
38 63 81 115 95 115 5 0 20 12 33 28 13 15 27 23 32 19 4 -5 -3 -17 -16 -28
-13 -10 -20 -19 -15 -19 13 0 44 32 44 47 0 23 19 14 26 -13z m7 -274 c-11
-48 -35 -83 -165 -238 -141 -168 -155 -192 -182 -332 -19 -93 -44 -170 -57
-170 -4 0 -23 9 -42 20 -33 20 -34 22 -26 58 5 20 14 74 20 120 15 116 36 165
110 262 77 101 247 280 266 280 8 0 12 4 8 9 -6 11 35 42 47 35 4 -3 8 1 9 8
0 7 4 4 9 -7 4 -11 6 -31 3 -45z m-403 -994 c0 -30 -27 -55 -36 -33 -6 17 12
57 26 57 6 0 10 -11 10 -24z"/>
<path d="M2799 2513 c-13 -16 -12 -17 4 -4 16 13 21 21 13 21 -2 0 -10 -8 -17
-17z"/>
<path d="M3007 2528 c3 -46 11 -94 18 -108 7 -14 16 -81 19 -150 4 -69 9 -151
12 -182 l6 -58 238 1 237 1 6 61 c4 34 9 118 13 187 4 77 11 131 19 140 7 8
15 53 17 103 l4 87 -297 0 -298 0 6 -82z m556 65 c19 -5 21 -30 11 -107 l-7
-46 -267 0 -267 0 -7 31 c-10 53 -7 117 7 122 16 6 507 6 530 0z m-17 -240
c-3 -38 -8 -113 -12 -168 -3 -55 -8 -108 -11 -118 -4 -16 -21 -17 -226 -15
l-222 3 -12 150 c-6 83 -12 165 -12 183 l-1 32 251 0 251 0 -6 -67z"/>
<path d="M3018 1913 l63 -4 -30 -28 c-39 -36 -50 -79 -26 -97 16 -12 14 -17
-32 -71 -211 -248 -317 -453 -327 -633 -2 -41 -2 -59 0 -40 8 63 35 179 44
185 17 10 25 -48 25 -170 0 -115 -2 -124 -34 -200 -19 -44 -60 -116 -90 -160
-96 -141 -103 -165 -105 -353 0 -89 2 -162 7 -162 4 0 7 73 7 163 0 185 5 202
99 339 130 191 166 361 114 535 l-16 52 35 73 c57 119 153 252 357 494 l60 71
-37 7 c-20 3 -68 5 -107 4 l-70 -2 63 -3z m122 -22 c0 -15 -101 -101 -111 -95
-30 18 39 104 85 104 14 0 26 -4 26 -9z"/>
<path d="M4667 1229 c-4 -36 -19 -108 -33 -160 -45 -163 -63 -269 -75 -427
-11 -147 -5 -422 10 -422 3 0 3 48 -1 108 -15 205 7 470 53 642 41 153 59 246
57 285 -3 33 -4 29 -11 -26z"/>
</g>
</svg>
